<?xml version="1.0" standalone="no"?><!DOCTYPE svg PUBLIC "-//W3C//DTD SVG 1.1//EN" "http://www.w3.org/Graphics/SVG/1.1/DTD/svg11.dtd"><svg t="1492223593934" class="icon" style="" viewBox="0 0 1024 1024" version="1.1" xmlns="http://www.w3.org/2000/svg" p-id="2623" xmlns:xlink="http://www.w3.org/1999/xlink" width="100" height="100"><defs><style type="text/css"></style></defs><path d="M952.452989 286.24842c-39.245839-29.220508-59.268872-61.032028-59.514465-94.550423-0.313132-42.531676 31.16479-78.658478 48.504714-95.314833 2.991124-0.712221 5.806239-1.933025 8.43716-3.685949 4.081968-2.721994 6.258541-6.995321 6.579859-12.783141 0.147356-0.99977 0.149403-2.01796-0.002047-3.024893-0.675382-10.125615-8.139378-15.20019-22.423709-15.20019L186.754916 61.688991c-23.171746 0-42.595121 4.594645-58.269102 13.780865-15.675004 9.188266-28.453029 21.820981-38.335097 37.900192-9.882068 16.077164-16.867156 35.272341-20.956288 57.58451s-6.133697 46.264697-6.133697 71.860654l0 570.93732c0 50.53086 13.9712 87.11815 41.913599 109.757776s67.810409 33.960463 119.604028 33.960463l34.757618 0 69.514213 0 95.071286 0c34.756595 0 70.365604 0.164752 106.826004 0.49221 36.461423 0.328481 72.070432 0.491187 106.828051 0.491187l96.093569 0 71.559802 0L841.007781 958.454168c19.082614 0 35.779901-3.773953 50.090838-11.320836 14.31196-7.544837 26.239618-18.044982 35.778878-31.497365 9.541307-13.45443 16.868179-29.368888 21.979594-47.742351 5.110391-18.374486 7.66661-38.062897 7.66661-59.063187L956.523701 295.354821C956.822506 291.936979 955.406251 288.448528 952.452989 286.24842zM604.863503 295.441802 474.012316 295.441802c-43.61638 0-82.632999 0.164752-117.049856 0.49221-34.414811 0.327458-62.868863 0.49221-85.358063 0.49221l-37.824467 0c-14.312984 0-28.28316-4.102435-41.913599-12.304234-13.629415-8.204869-25.897833-19.35993-36.801161-33.469276-10.904351-14.110369-27.805276-31.960922-26.068725-59.517535 4.712325-22.777773 16.527418-36.913724 28.113291-50.694589C168.695608 126.659725 181.473633 115.994828 195.444832 108.449991c13.9712-7.547907 27.771507-11.32186 41.401945-11.32186l675.569356 0c-18.805298 21.782096-40.189328 55.241139-39.944757 94.603635 0.231267 37.041638 19.506263 71.551616 57.3031 102.730733C810.249243 294.503431 701.941492 294.829865 604.863503 295.441802z" p-id="2624" fill="#1296db"></path><path d="M152.231635 324.19773l30.652114 0 0 591.228459-30.652114 0 0-591.228459Z" p-id="2625" fill="#1296db"></path></svg>