<?xml version="1.0" standalone="no"?><!DOCTYPE svg PUBLIC "-//W3C//DTD SVG 1.1//EN" "http://www.w3.org/Graphics/SVG/1.1/DTD/svg11.dtd"><svg t="1492351363153" class="icon" style="" viewBox="0 0 1024 1024" version="1.1" xmlns="http://www.w3.org/2000/svg" p-id="5075" xmlns:xlink="http://www.w3.org/1999/xlink" width="16" height="16"><defs><style type="text/css"></style></defs><path d="M550.4 608" p-id="5076" fill="#d81e06"></path><path d="M515.2 672" p-id="5077" fill="#d81e06"></path><path d="M275.2 540.8" p-id="5078" fill="#d81e06"></path><path d="M297.6 499.2" p-id="5079" fill="#d81e06"></path><path d="M352 1004.8 352 1004.8c-6.4 0-12.8 0-19.2-3.2l-6.4-3.2-48-134.4-134.4 51.2-6.4-3.2c-25.6-12.8-35.2-41.6-22.4-64l99.2-217.6 22.4 22.4c60.8 64 144 108.8 230.4 121.6l28.8 3.2-92.8 201.6C390.4 992 371.2 1004.8 352 1004.8z" p-id="5080" fill="#d81e06"></path><path d="M704 1004.8c-19.2 0-35.2-9.6-44.8-28.8l-92.8-201.6 28.8-3.2c89.6-12.8 169.6-57.6 230.4-121.6l22.4-22.4 99.2 217.6c6.4 12.8 6.4 25.6 0 38.4-3.2 12.8-12.8 22.4-25.6 28.8l-6.4 3.2-134.4-51.2-48 134.4-6.4 3.2C716.8 1001.6 710.4 1004.8 704 1004.8z" p-id="5081" fill="#d81e06"></path><path d="M524.8 0C320 0 153.6 166.4 153.6 374.4c0 204.8 166.4 374.4 374.4 374.4 204.8 0 374.4-166.4 374.4-374.4C899.2 166.4 732.8 0 524.8 0zM713.6 358.4 652.8 416c-6.4 6.4-9.6 16-9.6 28.8l12.8 80c3.2 25.6-22.4 44.8-44.8 32l-73.6-38.4c-9.6-3.2-19.2-3.2-28.8 0l-73.6 38.4c-22.4 12.8-51.2-6.4-44.8-32l12.8-80c3.2-9.6-3.2-19.2-9.6-28.8l-57.6-57.6c-19.2-19.2-9.6-48 16-54.4l80-12.8c9.6 0 19.2-6.4 22.4-16l35.2-73.6c12.8-22.4 44.8-22.4 54.4 0l35.2 73.6c3.2 9.6 12.8 16 22.4 16l80 12.8C720 310.4 732.8 339.2 713.6 358.4z" p-id="5082" fill="#d81e06"></path></svg>